<svg xmlns="http://www.w3.org/2000/svg" width="217.3" height="217.3" viewBox="0 0 217.3 217.3">
  <g>
    <path d="M140,161.6H77.6v-2.1A38.7,38.7,0,0,0,91.8,155a3.3,3.3,0,0,1,1.7-.2h30.2c1.1,0,.5,0,1.5.4s10,4.1,14.8,4.7m-38.5-29H96.8c-.1.5-.1.8-.2,1.1-.6,4.6-3.1,6.3-7.6,5.3a11.9,11.9,0,0,1-7.6-4.9,14.9,14.9,0,0,1-2.5-11.7,50.4,50.4,0,0,1,3.3-12.1c4.1-8.9,8.8-17.5,13.1-26.3a33.8,33.8,0,0,0,2.8-8.1,8.6,8.6,0,0,0-5.4-9.1.2.2,0,0,0-.2.4A8.3,8.3,0,0,1,97,75.3a33.7,33.7,0,0,1-3.2,7c-4.2,7.6-8.8,15.2-12.9,22.9a42.8,42.8,0,0,0-5.5,18.5C75,131.9,79.7,139,87,141.3c3.8,1.2,7.6,1.3,10.8-1.4l.5-.6A15.1,15.1,0,0,0,101.5,131Zm-13-45.5c.1-.3-.2-.5-.4-.3-1.7,2.8-3.3,5.7-4.9,8.5s-4.5,7.2-6.5,10.9a76.6,76.6,0,0,0-4.3,8.6,33.4,33.4,0,0,0-2.6,17.4c1.4,9.5,8,16.7,16.9,18.1,12,1.8,20.1-7.9,20.1-17.7h-4.6c-.1,3.3-1.3,10.6-9.1,13.3-5.1,1.5-13.7-.7-17.7-6.9a23.9,23.9,0,0,1-3.1-15.9c.9-6.4,3.5-12.1,6.5-17.6m40.3,35.4.5.6c3.1,2.7,6.9,2.6,10.7,1.4,7.3-2.3,12-9.4,11.6-17.6a42.7,42.7,0,0,0-5.4-18.5c-4.2-7.7-8.7-15.3-13-22.9a33.3,33.3,0,0,1-3.1-7,8.3,8.3,0,0,1,4.4-9.7c.2-.1.1-.5-.1-.4a8.5,8.5,0,0,0-5.4,9.1,26.9,26.9,0,0,0,2.8,8.1c4.3,8.8,9,17.4,13.1,26.3a50.2,50.2,0,0,1,3.2,12.1,14.9,14.9,0,0,1-2.5,11.7,11.9,11.9,0,0,1-7.5,4.9c-4.5,1-7-.7-7.7-5.3-.1-.3-.1-.6-.2-1h-4.7A14.5,14.5,0,0,0,119.1,139.3Zm19.5-35.4c2.9,5.5,5.5,11.2,6.4,17.6s0,11-3.1,15.9-12.6,8.4-17.6,6.9c-7.9-2.7-9.1-10-9.2-13.3h-4.5c0,9.8,8.1,19.5,20,17.7,9-1.4,15.5-8.6,16.9-18.1a31.5,31.5,0,0,0-2.6-17.4,75.8,75.8,0,0,0-4.2-8.6c-2.1-3.7-4.4-7.2-6.5-10.9l-5-8.5c-.1-.2-.5,0-.4.3m-32.3,41a76.6,76.6,0,0,0-8.3,0,6.2,6.2,0,0,0-5.3,3.2,2.2,2.2,0,0,0,.2,3,12,12,0,0,0,7.2,3.7c3.1.3,4.8-1.1,5-4.2.1-.8.1-1.5.2-2.4H122c0,.7.1,1.3.1,1.8.1,3.7,2,5.3,5.6,4.7a11.7,11.7,0,0,0,6.6-3.6,2.1,2.1,0,0,0,.4-2.8,6.5,6.5,0,0,0-5.7-3.4h-7.3l-2.4,2H98.1Zm25.2,23.9c-.8-.9-1.1-1.7-1.6-2a18.9,18.9,0,0,1-9.6-10.8,19.3,19.3,0,0,0-1.7-2.9,11.4,11.4,0,0,0-1.8,2.7,18.9,18.9,0,0,1-9.8,11.1c-.5.3-.7,1-1.4,1.9ZM87.6,59.2a8.1,8.1,0,0,0-6.7,7.6,7.9,7.9,0,0,0,5.3,7.5,5.5,5.5,0,0,0,5.6-1c.4-.4,0-1-.5-.7-2.9,1.5-5.4.8-7.1-2.1s.6-9.5,5.2-9.9a10.1,10.1,0,0,1,6.4,1.7.2.2,0,0,0,.3-.3A9.8,9.8,0,0,0,87.6,59.2ZM121.7,62c-.1.2.1.4.2.3a10.6,10.6,0,0,1,6.5-1.7c4.6.4,7.5,6,5.2,9.9s-4.3,3.6-7.2,2.1c-.4-.3-.8.3-.4.7a5.4,5.4,0,0,0,5.5,1c3.2-1.1,5.6-4.4,5.4-7.5a8.1,8.1,0,0,0-6.7-7.6A9.7,9.7,0,0,0,121.7,62Zm-12,61.8V77.7h-2v46.1Zm-5,0V77.7h-1.9v46.1Zm10,0V77.7h-2v46.1Zm1.8-49.1H100.9v1.8h15.6Zm0,50.8H100.9v1.8h15.6Zm5.2,26.4H95.8v1.8h25.9Zm-18-82.6c-.8,0-1.2.7-1.2,1.6a12,12,0,0,0,1.2,3.2,11.4,11.4,0,0,0,1.3-3.2C105,70,104.6,69.3,103.7,69.3Zm5,0c-.9,0-1.2.7-1.2,1.6a12,12,0,0,0,1.2,3.2,11.4,11.4,0,0,0,1.3-3.2C110,70,109.6,69.3,108.7,69.3Zm5,0c-.9,0-1.3.7-1.3,1.6a11.4,11.4,0,0,0,1.3,3.2,12,12,0,0,0,1.2-3.2C114.9,70,114.6,69.3,113.7,69.3Zm-4.9-13.5-1.6,3.1-3.5.3,2.4,2.6-.7,3.4,3.2-1.5,3,1.7-.5-3.5,2.6-2.3-3.4-.6Z"/>
    <g>
      <path d="M200.1,124.6l4,.7a3.7,3.7,0,0,1,1.8-1.9,6.7,6.7,0,0,1,3.9-.2,5.7,5.7,0,0,1,3.7,1.8,4,4,0,0,1,.8,3.3,3.8,3.8,0,0,1-2,2.8,5.4,5.4,0,0,1-4,.5,6.7,6.7,0,0,1-3.6-1.7,3.3,3.3,0,0,1-1-2.4l-4-.8c-.3,1.7-.8,3.3-1.1,4.9l2.3.5v-.4c-.4-.1-.7-.2-.8-.4s-.2-.5-.1-.9l.5-2.4,1.8.4c-.2.8.2,1.7,1.1,2.9a7.8,7.8,0,0,0,4.2,2.6,5.8,5.8,0,0,0,5-.8,6.3,6.3,0,0,0,2.8-4.5,6.9,6.9,0,0,0-.9-5.4,5.9,5.9,0,0,0-4.5-2.4,7.7,7.7,0,0,0-4.7.8,4.8,4.8,0,0,0-2.2,2.4l-1.8-.3a19.7,19.7,0,0,0,.3-2.4c.1-.3.2-.6.5-.7a1.1,1.1,0,0,1,.8-.2V120l-2.3-.3C200.6,121.3,200.4,123,200.1,124.6Zm-3,12.2h.6a3.6,3.6,0,0,1,.5-.9h.8l5.5,1.6c-.1.4-.2.9-.3,1.2l-5,1.7-2.4-2.9-.3,1,1.8,2.3-1,.2h-.7a1.4,1.4,0,0,1,0-.9l-.6-.2c-.5,1.5-1.1,2.9-1.6,4.3l.5.3a1.8,1.8,0,0,1,.6-.8l.8-.5,2.9-.9a32.8,32.8,0,0,1,2,3.1l.5-1.2-1.4-2.1,3.1-1h0a3.5,3.5,0,0,0,.2,2.2,3.8,3.8,0,0,0,2.7,2.3c1.6.7,2.9.6,3.8-.3a10.1,10.1,0,0,0,2.2-3.7l1.5-5.4h-.6a1.5,1.5,0,0,1-.5,1,.7.7,0,0,1-.9.1l-12.2-3.3a1,1,0,0,1-.7-.5,4.1,4.1,0,0,1,.1-1l-.6-.2C198,133.7,197.6,135.2,197.1,136.8Zm14.5,3c-.2.5-.3,1-.5,1.5a4.9,4.9,0,0,1-1.3,2.2,2.9,2.9,0,0,1-2.4-.1,4.8,4.8,0,0,1-2.3-1.4,2.3,2.3,0,0,1-.1-2,15.9,15.9,0,0,0,.7-2ZM192.2,149l.6.3a2.3,2.3,0,0,1,.6-.9.8.8,0,0,1,.8.1l5.2,2.4-.9,2.1a5.7,5.7,0,0,0-.7,3.3,4.1,4.1,0,0,0,2.3,2.8c1.5.9,2.8,1,3.8.2a7.9,7.9,0,0,0,2.6-3.4l2.3-5-.5-.3c-.3.6-.5.9-.7,1s-.5.2-.9,0l-11.6-5.1a.9.9,0,0,1-.6-.6,3.3,3.3,0,0,1,.3-1l-.6-.2Zm13.9,5.1a10.1,10.1,0,0,1-.7,1.5,3.9,3.9,0,0,1-1.6,1.9,3,3,0,0,1-2.3-.4,5.6,5.6,0,0,1-2.1-1.7,2.3,2.3,0,0,1,.2-2.1l.9-1.9Zm-19.3,4.6.5.3c.3-.4.5-.7.7-.7a.8.8,0,0,1,.8.1l5.4,3.4c-1.1,1.7-2.2,3.5-3.5,5.2l-5.2-3.7a1,1,0,0,1-.4-.7,1.6,1.6,0,0,1,.4-.9l-.5-.4c-.9,1.3-1.8,2.7-2.8,3.9l.5.3c.3-.3.6-.6.8-.6a.9.9,0,0,1,.8.2l10.1,7.6h.2q.5.3.3.6c0,.3-.2.6-.6,1.1l.5.4c1.2-1.5,2.2-3,3.3-4.5l-.5-.4a2.4,2.4,0,0,1-.8.9,1,1,0,0,1-.9-.2l-4.2-3a60.6,60.6,0,0,0,3.5-5.3l4.4,2.7a.8.8,0,0,1,.5.7,2.1,2.1,0,0,1-.4,1.1l.5.4,1.5-2.4,1.4-2.4-.6-.3a2.5,2.5,0,0,1-.7.9c-.2.2-.5.1-.9-.1l-11-6.5a.6.6,0,0,1-.4-.6,1.1,1.1,0,0,1,.3-1l-.5-.3-1.2,2.1Zm-12.5,15.6,2.8,2.8.4-.4a2.3,2.3,0,0,1-.6-1.2,1.9,1.9,0,0,1,.7-1.3c1.4-1.4,2.7-3,4-4.5a86.7,86.7,0,0,1,.6,8.9c2.9-.1,5.7-.3,8.7-.7l-2.3,2.6-2.3,2.4c-.4.5-.8.8-1.2.7a2.1,2.1,0,0,1-1.1-.5l-.4.5,1.9,1.9a120,120,0,0,0,8.9-10l-.5-.4a96,96,0,0,1-10.5,1.1,82.1,82.1,0,0,0-1.1-10.1l-.5-.4C179.5,168.7,176.9,171.5,174.3,174.3Z"/>
      <path d="M162,184.5l2.4,3.4a3.9,3.9,0,0,1,2.6-.1,7.1,7.1,0,0,1,3,2.7,5.6,5.6,0,0,1,1.2,3.8,4.2,4.2,0,0,1-1.7,3,4,4,0,0,1-3.4.5,5.2,5.2,0,0,1-3.2-2.5,7.4,7.4,0,0,1-1.4-3.8,3.7,3.7,0,0,1,1-2.3l-2.2-3.4c-1.5.9-2.8,1.8-4.3,2.6l1.2,2h.5a1.1,1.1,0,0,1-.3-1c0-.2.2-.4.6-.7l2-1.2,1,1.4a4.2,4.2,0,0,0-1.3,3,7.1,7.1,0,0,0,1.2,4.7,5.6,5.6,0,0,0,4.1,3,6.9,6.9,0,0,0,5.1-1.2,7,7,0,0,0,3.2-4.5,6.3,6.3,0,0,0-1.5-4.8,7.8,7.8,0,0,0-3.9-2.8,5.1,5.1,0,0,0-3.3.1l-1-1.4c.6-.5,1.3-.9,1.9-1.5a1.5,1.5,0,0,1,.9-.2,1.5,1.5,0,0,1,.7.5l.4-.3-1.5-1.8-2,1.5ZM151.3,191l.3.6,1-.3a.6.6,0,0,1,.6.5l2.8,5.1-1.2.6c-1.6-.7-3.1-1.5-4.6-2.3.1-1.2.3-2.5.4-3.8l-1,.5a25.4,25.4,0,0,1-.4,2.9l-.9-.6-.3-.3a.3.3,0,0,1-.1-.2,1.4,1.4,0,0,1,.7-.6l-.3-.5-4.2,1.8.2.6,1-.2.9.3,2.7,1.4c-.2,1.2-.5,2.4-.8,3.6l1.2-.5.6-2.5,2.9,1.5h-.1a4.2,4.2,0,0,0-1.4,1.7,3.7,3.7,0,0,0,.3,3.5c.7,1.6,1.7,2.5,2.9,2.5a9.4,9.4,0,0,0,4.2-1.1l4.8-2.7-.3-.6-1.1.5c-.3,0-.5-.2-.7-.6l-6.3-11.1c-.1-.3-.2-.5-.1-.7a1.9,1.9,0,0,1,.8-.7l-.3-.5C154.1,189.5,152.8,190.4,151.3,191Zm8.1,12.4-1.4.8a4.2,4.2,0,0,1-2.4.6c-.6-.1-1.1-.7-1.6-1.7a4.4,4.4,0,0,1-.7-2.6,2.4,2.4,0,0,1,1.4-1.6l1.8-.9Zm-20.2-7.1.2.5a2.2,2.2,0,0,1,1.1-.1,1,1,0,0,1,.5.6l2,5.5-2.2.7a7.7,7.7,0,0,0-2.8,1.9c-.7.8-.8,2-.4,3.6s1.4,2.6,2.6,2.8a8.5,8.5,0,0,0,4.3-.5l5.2-2-.3-.5a2.8,2.8,0,0,1-1.1.2c-.3,0-.5-.2-.7-.7L143,196.5a1.1,1.1,0,0,1,0-.8,1.3,1.3,0,0,1,.9-.5l-.2-.6Zm6.3,13.4-1.6.5a3.7,3.7,0,0,1-2.4.3c-.6-.2-1.1-.8-1.4-2a4.2,4.2,0,0,1-.3-2.6,2.3,2.3,0,0,1,1.6-1.4l2-.6Zm-16.9-10.4v.6h1a1,1,0,0,1,.5.6l1.4,6.2-3,.7-3.1.5-1.1-6.2a.7.7,0,0,1,.2-.8c.1-.2.4-.3.9-.4v-.6l-2.3.4-2.4.3v.6h1.1a.8.8,0,0,1,.3.7l1.8,12.6h.1c0,.4,0,.6-.2.8l-1.2.3v.6l2.7-.4,2.8-.5v-.6H127c-.3-.1-.4-.4-.5-.8l-.8-5.1,3.1-.6,3.1-.6,1.2,5a.9.9,0,0,1-.2.9,3.2,3.2,0,0,1-1.1.4v.6l5.4-1.3v-.6a1.7,1.7,0,0,1-1.2.1c-.2,0-.4-.3-.5-.7L132.3,200a.8.8,0,0,1,.1-.8c.1-.2.4-.3.9-.5v-.5Zm-19.9,2.1v4h.6a1.6,1.6,0,0,1,.4-1.2,1.7,1.7,0,0,1,1.4-.5h3l3-.2c-.9,1.1-1.8,2.3-2.8,3.4l-3,3.3,3.1,2.9,3.4,2.8-3.4.2h-3.3c-.7,0-1.2-.1-1.4-.4a1.6,1.6,0,0,1-.4-1.1h-.6v2.7a98.9,98.9,0,0,0,13.3-.8v-.6a90.9,90.9,0,0,1-8.2-6.6c2.3-2.7,4.4-5.2,6.4-8v-.6A87.2,87.2,0,0,1,108.7,201.4Z"/>
      <path d="M92.7,200.1l-.7,4a3.7,3.7,0,0,1,1.9,1.8c.5.8.5,2.1.3,3.9a5.8,5.8,0,0,1-1.9,3.7,4,4,0,0,1-3.3.8,3.8,3.8,0,0,1-2.8-2,5.4,5.4,0,0,1-.4-4c.4-1.8.9-3,1.7-3.6a3,3,0,0,1,2.3-1l.8-4-4.8-1.1-.6,2.3h.4a1.2,1.2,0,0,1,.5-.8c.2-.2.5-.2.9-.1l2.3.5-.4,1.8c-.7-.2-1.7.2-2.9,1.1a7.8,7.8,0,0,0-2.6,4.2,6.1,6.1,0,0,0,.8,5,7.7,7.7,0,0,0,9.9,1.9,5.9,5.9,0,0,0,2.4-4.5,6.5,6.5,0,0,0-.8-4.7,4.5,4.5,0,0,0-2.4-2.2l.3-1.8,2.4.3a1.4,1.4,0,0,1,.8.5,1.1,1.1,0,0,1,.1.8h.5l.2-2.3Zm-12.1-3-.2.6c.5.2.8.3.9.5s.2.4.1.8l-1.7,5.5-1.2-.3c-.6-1.7-1.2-3.4-1.7-5l3-2.4-1-.3-2.4,1.8-.2-1v-.6h1l.2-.6-4.3-1.6-.2.5.8.6a5.9,5.9,0,0,1,.4.8l.9,2.9a32.8,32.8,0,0,1-3.1,2l1.3.5,2.1-1.4c.3,1,.6,2.1,1,3.1h-.1a3.6,3.6,0,0,0-2.2.2c-1,.3-1.7,1.2-2.3,2.7s-.5,2.9.3,3.8a9.8,9.8,0,0,0,3.8,2.2l5.3,1.5.2-.6a1.9,1.9,0,0,1-1.1-.5c-.2-.2-.2-.5-.1-.9l3.4-12.2c.1-.4.2-.6.5-.7h1v-.6Zm-3,14.5-1.6-.5a4,4,0,0,1-2.1-1.3c-.4-.5-.3-1.3,0-2.4a5.7,5.7,0,0,1,1.4-2.3,2.5,2.5,0,0,1,2.1-.1l2,.7Zm-9.3-19.4-.2.6a1.8,1.8,0,0,1,.8.6.8.8,0,0,1-.1.8l-2.4,5.2-2.1-.9a5.4,5.4,0,0,0-3.3-.7,4.1,4.1,0,0,0-2.8,2.3c-.8,1.5-.9,2.8-.2,3.8a8.5,8.5,0,0,0,3.4,2.6l5.1,2.3.2-.5-1-.7a1.4,1.4,0,0,1,0-.9l5.1-11.6.6-.6,1,.3.2-.6Zm-5,13.9-1.5-.7c-1-.5-1.7-1-1.9-1.6s-.2-1.3.4-2.3a4.8,4.8,0,0,1,1.7-2.1,2.1,2.1,0,0,1,2,.2l1.9.9Zm-4.6-19.3-.4.5a3,3,0,0,1,.8.7.8.8,0,0,1-.2.8l-3.3,5.4a60.6,60.6,0,0,1-5.3-3.5l3.7-5.2a1.3,1.3,0,0,1,.7-.4,2.2,2.2,0,0,1,1,.4l.3-.5c-1.3-.9-2.6-1.8-3.8-2.8l-.4.5a2.3,2.3,0,0,1,.7.8,1.3,1.3,0,0,1-.2.8l-7.7,10.1v.2c-.3.3-.5.4-.7.3s-.6-.2-1.1-.6l-.3.5c1.4,1.2,3,2.2,4.5,3.3l.3-.5a1.9,1.9,0,0,1-.8-.8c-.2-.3-.1-.6.2-.9l3-4.2c1.7,1.3,3.5,2.4,5.2,3.5l-2.7,4.4c-.2.4-.4.5-.7.5a2.4,2.4,0,0,1-1.1-.4l-.3.5,2.3,1.5,2.4,1.4.3-.6a2.5,2.5,0,0,1-.9-.7.8.8,0,0,1,.2-.9l6.4-11a.7.7,0,0,1,.6-.4,1.1,1.1,0,0,1,1,.3l.3-.5-2-1.2ZM43.1,174.3l-2.9,2.8.5.4a1.7,1.7,0,0,1,1.1-.6,1.7,1.7,0,0,1,1.3.7l4.6,4a86.7,86.7,0,0,1-8.9.6,86.7,86.7,0,0,0,.6,8.7l-2.5-2.3a27.3,27.3,0,0,1-2.5-2.3,1.5,1.5,0,0,1-.7-1.2,2.1,2.1,0,0,1,.5-1.1l-.4-.4-2,1.9a107.1,107.1,0,0,0,10.1,8.9l.4-.5a96.5,96.5,0,0,1-1.2-10.5,83.8,83.8,0,0,0,10.2-1.1l.4-.5A88.8,88.8,0,0,1,43.1,174.3Z"/>
      <path d="M32.8,162l-3.4,2.4a3.4,3.4,0,0,1,.1,2.6,7.4,7.4,0,0,1-2.6,3,6,6,0,0,1-3.9,1.2,4.2,4.2,0,0,1-3-1.7,4,4,0,0,1-.5-3.4,5.4,5.4,0,0,1,2.6-3.2,6.9,6.9,0,0,1,3.7-1.4,3.5,3.5,0,0,1,2.3,1l3.4-2.2c-.8-1.5-1.8-2.8-2.6-4.3l-2,1.2.2.5a.9.9,0,0,1,.9-.3,1,1,0,0,1,.7.6l1.3,2-1.5,1a4,4,0,0,0-2.9-1.3,7.3,7.3,0,0,0-4.8,1.2,5.9,5.9,0,0,0-3,4.1,6.5,6.5,0,0,0,1.3,5.1,6.8,6.8,0,0,0,4.4,3.2,6.6,6.6,0,0,0,4.9-1.5,7,7,0,0,0,2.7-3.9,5.1,5.1,0,0,0-.1-3.3l1.5-1,1.4,1.9a1,1,0,0,1,.2.9,1,1,0,0,1-.5.7l.3.4,1.9-1.5-1.6-2Zm-6.5-10.7-.6.3a1.1,1.1,0,0,1,.3,1,.6.6,0,0,1-.5.6L20.4,156l-.6-1.2c.8-1.6,1.5-3.1,2.3-4.6l3.8.4-.5-1-2.9-.4.6-.9c.1-.1.2-.3.4-.3h.2a1,1,0,0,1,.5.7l.6-.3-1.9-4.2-.6.2a2.2,2.2,0,0,1,.2,1,2.3,2.3,0,0,1-.3.9l-1.3,2.7-3.7-.8.6,1.2,2.5.6a26.4,26.4,0,0,0-1.5,2.9h-.1c-.2-.5-.8-.9-1.6-1.4a3.9,3.9,0,0,0-3.6.3c-1.6.7-2.4,1.7-2.5,2.9a9.7,9.7,0,0,0,1.2,4.2q1.2,2.4,2.7,4.8l.5-.3a2.4,2.4,0,0,1-.4-1.1c0-.3.2-.5.5-.7l11.1-6.3a1.1,1.1,0,0,1,.8-.1,3,3,0,0,1,.7.8l.5-.3C27.8,154.1,27,152.8,26.3,151.3Zm-12.4,8.1-.7-1.4a3.7,3.7,0,0,1-.7-2.4c.1-.6.7-1.1,1.8-1.6a4.4,4.4,0,0,1,2.6-.7,2.3,2.3,0,0,1,1.5,1.4l1,1.8Zm7.2-20.2-.6.2a2.2,2.2,0,0,1,.1,1.1,1,1,0,0,1-.6.5l-5.4,2-.8-2.2a5.9,5.9,0,0,0-1.9-2.8c-.8-.7-2-.8-3.5-.4s-2.7,1.4-2.9,2.6a8.2,8.2,0,0,0,.6,4.2c.5,1.8,1.3,3.5,1.9,5.3l.6-.3a3.6,3.6,0,0,1-.3-1.1,1.2,1.2,0,0,1,.7-.7L20.8,143h.8a1.7,1.7,0,0,1,.6.9l.5-.2C22.2,142.2,21.5,140.7,21.1,139.2ZM7.6,145.5l-.5-1.6a4.2,4.2,0,0,1-.2-2.4c.1-.6.8-1.1,1.9-1.4a4.6,4.6,0,0,1,2.7-.3,2.2,2.2,0,0,1,1.3,1.6l.7,2ZM18,128.6h-.5a1.6,1.6,0,0,1,0,1,1,1,0,0,1-.7.5l-6.2,1.4c-.2-1-.5-2-.7-3l-.5-3.1,6.3-1.1a.6.6,0,0,1,.7.2c.2.1.3.4.4.9h.6l-.4-2.3-.3-2.4h-.6a1.9,1.9,0,0,1-.1,1.1c-.1.2-.3.3-.7.3L2.8,124H2.6c-.3,0-.6,0-.7-.2a2.4,2.4,0,0,1-.4-1.2H.9a25.1,25.1,0,0,1,.4,2.7l.5,2.8h.6a2.3,2.3,0,0,1,0-1.2c.1-.3.3-.4.7-.5l5.1-.8.6,3.1c.2,1,.5,2,.7,3.1l-5,1.2c-.5.1-.8,0-.9-.2a1.9,1.9,0,0,1-.5-1.1H2.5c.5,1.8.8,3.7,1.4,5.4h.5a2.8,2.8,0,0,1-.1-1.2,1,1,0,0,1,.7-.5l12.3-3.2c.4-.1.6-.1.8.1a1.3,1.3,0,0,1,.5.9h.6C18.7,131.7,18.4,130.1,18,128.6Zm-2.1-19.9h-4v.6a1.6,1.6,0,0,1,1.2.4,1.7,1.7,0,0,1,.5,1.4c0,1,0,2,.1,3l.2,3-3.4-2.8-3.3-3-2.9,3.1-2.7,3.4-.3-3.4c0-1.1,0-2.2-.1-3.3s.1-1.2.4-1.4a2.1,2.1,0,0,1,1.2-.4v-.6H0c.1,4.4.3,8.9.8,13.3h.6a91.7,91.7,0,0,1,6.7-8.2,96,96,0,0,0,7.9,6.4h.6A109,109,0,0,1,15.9,108.7Z"/>
      <path d="M17.3,92.7,13.2,92a3.7,3.7,0,0,1-1.8,1.9c-.8.5-2.1.5-3.9.3a5.3,5.3,0,0,1-3.6-1.9A4,4,0,0,1,5,86.2a5.6,5.6,0,0,1,4.1-.4,6.7,6.7,0,0,1,3.6,1.7,3.3,3.3,0,0,1,.9,2.3l4.1.8c.3-1.6.7-3.2,1-4.8l-2.2-.6-.2.4a1.5,1.5,0,0,1,.9.5,1.3,1.3,0,0,1,.1.9l-.6,2.3L15,88.9A4.4,4.4,0,0,0,13.8,86a7.4,7.4,0,0,0-4.2-2.6,6.1,6.1,0,0,0-5,.8,7.6,7.6,0,0,0-2.8,4.6,6.7,6.7,0,0,0,1,5.3,5.9,5.9,0,0,0,4.4,2.4,6.5,6.5,0,0,0,4.7-.8,4.7,4.7,0,0,0,2.3-2.4l1.7.3L15.6,96a1.2,1.2,0,0,1-.4.8,1.4,1.4,0,0,1-.9.1v.5l2.4.2C16.8,96,17,94.4,17.3,92.7Zm2.9-12.1-.6-.2a1.3,1.3,0,0,1-.5.9c-.1.2-.4.2-.7.1l-5.6-1.7a5.6,5.6,0,0,1,.4-1.2l4.9-1.7,2.4,3,.3-1-1.7-2.4,1-.2h.7a1,1,0,0,1-.1.9l.6.2c.5-1.5,1.1-2.9,1.7-4.3l-.6-.2-.6.8-.8.4-2.9.9-2-3.1-.5,1.3L17,75.3l-3.1,1h0a3.6,3.6,0,0,0-.2-2.2c-.3-1-1.2-1.7-2.7-2.3s-2.9-.5-3.8.3a8.6,8.6,0,0,0-2.1,3.8c-.6,1.7-1.1,3.5-1.6,5.3l.6.2a2.8,2.8,0,0,1,.5-1.1c.2-.2.5-.2.9-.1l12.3,3.4c.3.1.5.2.6.5a1.2,1.2,0,0,1-.1,1h.6C19.4,83.6,19.7,82.1,20.2,80.6Zm-14.4-3c.1-.6.3-1.1.4-1.6a4,4,0,0,1,1.3-2.1c.5-.4,1.3-.3,2.4,0a5,5,0,0,1,2.3,1.4,2.2,2.2,0,0,1,.1,2.1l-.6,2Zm19.3-9.3-.5-.2a3,3,0,0,1-.7.8.6.6,0,0,1-.7-.1l-5.3-2.4a20,20,0,0,1,1-2.1,6.1,6.1,0,0,0,.6-3.3,3.7,3.7,0,0,0-2.2-2.8c-1.6-.8-2.9-.9-3.8-.2a9.7,9.7,0,0,0-2.7,3.4L8.5,66.5l.6.2a2.9,2.9,0,0,1,.6-1,1.4,1.4,0,0,1,.9,0l11.7,5.1c.3.2.5.4.5.6a1.4,1.4,0,0,1-.2,1l.5.2Zm-13.9-5a10.1,10.1,0,0,0,.7-1.5,4,4,0,0,1,1.6-1.9c.5-.3,1.3-.2,2.3.4A4.2,4.2,0,0,1,17.9,62a2.1,2.1,0,0,1-.2,2l-.9,1.9Zm19.3-4.6-.5-.4a1.9,1.9,0,0,1-.7.8.9.9,0,0,1-.8-.2l-5.4-3.3c1.1-1.8,2.3-3.6,3.5-5.3L31.8,54a.9.9,0,0,1,.4.7,2.2,2.2,0,0,1-.4,1l.5.3c.9-1.3,1.8-2.6,2.8-3.8l-.5-.4a1.7,1.7,0,0,1-.8.7,1,1,0,0,1-.7-.2L22.9,44.6h-.1c-.3-.3-.4-.5-.4-.7s.2-.6.6-1.1l-.5-.3c-1.2,1.4-2.2,3-3.3,4.5l.5.3c.4-.5.6-.7.9-.8s.5-.1.8.2l4.2,3-3.5,5.2-4.4-2.7c-.3-.2-.5-.4-.5-.7a3.1,3.1,0,0,1,.5-1.1l-.5-.3-1.5,2.3-1.4,2.4.5.3c.3-.5.5-.8.8-.9a.8.8,0,0,1,.9.2l10.9,6.4c.3.2.5.4.5.6a2.2,2.2,0,0,1-.3,1l.5.3,1.2-2ZM43.1,43.1l-2.9-2.9-.4.5a1.4,1.4,0,0,1,.6,1.1,1.9,1.9,0,0,1-.6,1.3,58.7,58.7,0,0,0-4.1,4.6,86.7,86.7,0,0,1-.6-8.9,82.8,82.8,0,0,0-8.6.6l2.2-2.5A27.3,27.3,0,0,1,31,34.4a1.9,1.9,0,0,1,1.2-.7,1.8,1.8,0,0,1,1.1.5l.5-.4-2-2A106.1,106.1,0,0,0,23,41.9l.5.4a94.7,94.7,0,0,1,10.4-1.2c.2,3.5.6,6.9,1.1,10.2l.5.4A77.9,77.9,0,0,1,43.1,43.1Z"/>
      <path d="M55.3,32.8l-2.4-3.4a3.3,3.3,0,0,1-2.6.1,7.3,7.3,0,0,1-2.9-2.6A5,5,0,0,1,46.2,23a3.9,3.9,0,0,1,1.7-3,3.9,3.9,0,0,1,3.4-.5,5.5,5.5,0,0,1,3.1,2.6c1,1.5,1.5,2.7,1.4,3.7a3.5,3.5,0,0,1-1,2.3l2.3,3.4,4.2-2.6-1.2-2-.4.2a1.9,1.9,0,0,1,.3.9,1.9,1.9,0,0,1-.6.7l-2,1.3-1-1.5a4.4,4.4,0,0,0,1.2-2.9,7.2,7.2,0,0,0-1.1-4.8,5.9,5.9,0,0,0-4.1-3,6.7,6.7,0,0,0-5.2,1.3,6.3,6.3,0,0,0-3.1,4.4,6.2,6.2,0,0,0,1.4,4.9,7,7,0,0,0,3.9,2.7,5.1,5.1,0,0,0,3.3-.1l1.1,1.5-2,1.4a.8.8,0,0,1-.8.2,1,1,0,0,1-.8-.5l-.3.3,1.4,1.9,2-1.6ZM66,26.3l-.3-.6a1.1,1.1,0,0,1-1,.3c-.2,0-.4-.2-.6-.5l-2.7-5.1,1.1-.6,4.7,2.3c-.2,1.3-.3,2.5-.4,3.8l.9-.5a28.9,28.9,0,0,1,.4-2.9l.9.6a.8.8,0,0,1,.4.4v.2a1,1,0,0,1-.6.5l.2.6,4.2-1.9-.2-.6a2,2,0,0,1-1,.2l-.9-.3-2.6-1.3c.2-1.2.4-2.4.7-3.7l-1.2.6-.5,2.5-2.9-1.5h0A3.2,3.2,0,0,0,66,17.1a4.2,4.2,0,0,0-.2-3.6c-.8-1.6-1.7-2.4-3-2.5a9,9,0,0,0-4.1,1.2,46.7,46.7,0,0,0-4.9,2.7l.3.5a2.4,2.4,0,0,1,1.1-.4c.3,0,.5.2.7.5l6.3,11.1a.8.8,0,0,1,.1.8,1.9,1.9,0,0,1-.8.7l.3.5ZM57.9,13.9l1.5-.7a3.7,3.7,0,0,1,2.4-.7c.5.1,1.1.7,1.6,1.8a5,5,0,0,1,.6,2.6,2.1,2.1,0,0,1-1.3,1.5l-1.9,1Zm20.2,7.2-.2-.6a1.9,1.9,0,0,1-1,.1,1,1,0,0,1-.5-.6l-2-5.4,2.1-.8a5.1,5.1,0,0,0,2.8-1.9,3.5,3.5,0,0,0,.4-3.5c-.5-1.7-1.3-2.7-2.5-2.9a8.5,8.5,0,0,0-4.3.6c-1.8.5-3.5,1.3-5.2,1.9l.2.6,1.2-.3a1.4,1.4,0,0,1,.6.7l4.6,11.8a1.1,1.1,0,0,1,0,.8,1.7,1.7,0,0,1-.9.6l.3.5C75.2,22.2,76.6,21.5,78.1,21.1ZM71.9,7.6l1.5-.5a4.5,4.5,0,0,1,2.5-.2c.5.1,1,.8,1.3,1.9a4.6,4.6,0,0,1,.3,2.7,2.2,2.2,0,0,1-1.6,1.3l-1.9.7ZM88.8,18v-.5a2,2,0,0,1-1.1,0,.7.7,0,0,1-.4-.7l-1.5-6.2,3.1-.7,3.1-.5,1,6.3a.8.8,0,0,1-.1.7,1.9,1.9,0,0,1-1,.4v.6l2.4-.4,2.3-.3v-.6a1.5,1.5,0,0,1-1-.1.7.7,0,0,1-.4-.7L93.3,2.8V2.6a.6.6,0,0,1,.2-.7,2.3,2.3,0,0,1,1.1-.4V.9l-2.8.4-2.7.5v.6a2.4,2.4,0,0,1,1.2,0,.7.7,0,0,1,.4.7l.9,5.1-3.1.6-3.1.7-1.2-5c-.1-.5-.1-.8.1-.9a2.3,2.3,0,0,1,1.1-.5V2.5c-1.8.5-3.6.8-5.4,1.4v.5a2.8,2.8,0,0,1,1.2-.1.9.9,0,0,1,.6.7L85,17.3c.1.4.1.6-.1.8a1.3,1.3,0,0,1-.9.5l.2.6C85.7,18.7,87.2,18.4,88.8,18Zm19.9-2.1v-4h-.6a2.1,2.1,0,0,1-.4,1.2,2,2,0,0,1-1.4.5h-3.1l-3,.2c.9-1.1,1.9-2.2,2.8-3.4l3.1-3.3-3.2-2.9L99.5,1.6l3.4-.3h3.4c.6,0,1.1.1,1.3.4a1.6,1.6,0,0,1,.4,1.2h.7V0c-4.5.1-9,.3-13.4.8v.6c2.9,2.1,5.6,4.4,8.2,6.7A79,79,0,0,0,97.2,16v.6A110.9,110.9,0,0,1,108.7,15.9Z"/>
      <path d="M124.6,17.3l.7-4.1a3.7,3.7,0,0,1-1.9-1.8,6.7,6.7,0,0,1-.2-3.9A5.2,5.2,0,0,1,125,3.9a4.1,4.1,0,0,1,3.3-.9,4,4,0,0,1,2.8,2,5.6,5.6,0,0,1,.5,4.1,7.5,7.5,0,0,1-1.7,3.6,3.6,3.6,0,0,1-2.4.9l-.8,4.1,4.9,1,.5-2.2-.4-.2a1.5,1.5,0,0,1-.4.9,1.3,1.3,0,0,1-.9.1l-2.4-.6.4-1.7a4.3,4.3,0,0,0,2.9-1.2,7.4,7.4,0,0,0,2.6-4.2,5.8,5.8,0,0,0-.8-5,7,7,0,0,0-4.5-2.8c-2.2-.3-4-.1-5.4,1a5.9,5.9,0,0,0-2.4,4.4,7.7,7.7,0,0,0,.8,4.7,5.1,5.1,0,0,0,2.4,2.3l-.3,1.7-2.4-.3a.8.8,0,0,1-.7-.4,1.5,1.5,0,0,1-.2-.9H120l-.3,2.4Zm12.2,2.9v-.6a1.9,1.9,0,0,1-.9-.5.8.8,0,0,1,0-.7l1.6-5.6,1.2.4c.6,1.6,1.2,3.3,1.7,4.9l-2.9,2.4,1,.3,2.3-1.7.2,1a.4.4,0,0,1,0,.5v.2a1,1,0,0,1-.9-.1l-.2.6,4.3,1.7.3-.6a1.8,1.8,0,0,1-.8-.6c-.2-.1-.3-.4-.5-.8l-.9-2.9,3.1-2-1.2-.5L142.1,17a28.1,28.1,0,0,1-1-3.1h0a3.5,3.5,0,0,0,2.2-.2,3.8,3.8,0,0,0,2.3-2.7c.7-1.6.6-2.9-.3-3.8a8.8,8.8,0,0,0-3.7-2.1l-5.4-1.6v.6c.5.2.9.3,1,.5a.7.7,0,0,1,.1.9l-3.3,12.3a1,1,0,0,1-.5.6,1.2,1.2,0,0,1-1-.1l-.2.6Zm3-14.4,1.5.4a4.9,4.9,0,0,1,2.2,1.3,2.9,2.9,0,0,1-.1,2.4,4.3,4.3,0,0,1-1.4,2.3,2,2,0,0,1-2,.1l-2-.6ZM149,25.1l.3-.5-.9-.7a.6.6,0,0,1,.1-.7l2.4-5.3,2.1,1a6.5,6.5,0,0,0,3.3.6,3.7,3.7,0,0,0,2.8-2.2c.9-1.6,1-2.9.2-3.8a8.8,8.8,0,0,0-3.4-2.7l-5-2.3-.3.6c.6.2.9.4,1,.6s.2.5,0,.9l-5.1,11.7a.6.6,0,0,1-.6.5c-.2.1-.5,0-1-.2l-.2.5Zm5.1-13.9,1.5.7a4.5,4.5,0,0,1,1.9,1.6,3,3,0,0,1-.4,2.3,4.9,4.9,0,0,1-1.7,2.1,2.3,2.3,0,0,1-2.1-.2l-1.9-.9Zm4.6,19.3.3-.5c-.4-.2-.7-.5-.7-.7a.8.8,0,0,1,.1-.8l3.4-5.4,5.2,3.5-3.7,5.2a.8.8,0,0,1-.7.4,1.6,1.6,0,0,1-.9-.4l-.4.5c1.3.9,2.7,1.8,3.9,2.8l.3-.5c-.3-.3-.6-.5-.6-.8a.7.7,0,0,1,.2-.7l7.6-10.2h.1a.7.7,0,0,1,.6-.4c.3,0,.6.2,1.1.6l.4-.5-4.5-3.3-.4.5c.5.4.8.6.9.9a.9.9,0,0,1-.2.8l-3,4.2-5.3-3.5,2.7-4.4a1,1,0,0,1,.7-.5,2.5,2.5,0,0,1,1.1.5l.4-.5-2.4-1.5-2.4-1.4-.3.5c.5.3.8.5.9.8s.1.5-.1.9l-6.5,10.9a.7.7,0,0,1-.6.5l-1-.3-.3.5,2.1,1.2Zm15.6,12.6,2.8-2.9-.4-.4a1.7,1.7,0,0,1-1.2.6,2.2,2.2,0,0,1-1.3-.6,57.4,57.4,0,0,0-4.5-4.1,86.7,86.7,0,0,1,8.9-.6,83.1,83.1,0,0,0-.7-8.6l2.6,2.2,2.4,2.3c.5.5.8.9.7,1.2a1.8,1.8,0,0,1-.5,1.1l.5.5,1.9-2a118.7,118.7,0,0,0-10-8.8l-.4.5a94.2,94.2,0,0,1,1.1,10.4c-3.5.2-6.8.6-10.1,1.1l-.4.5A101.7,101.7,0,0,1,174.3,43.1Z"/>
      <path d="M184.5,55.3l3.4-2.4a3.9,3.9,0,0,1-.1-2.6c.3-.9,1.2-1.8,2.7-2.9a4.7,4.7,0,0,1,3.8-1.2,3.9,3.9,0,0,1,3,1.7,3.9,3.9,0,0,1,.5,3.4,5.3,5.3,0,0,1-2.5,3.1c-1.6,1-2.8,1.5-3.8,1.4a3.7,3.7,0,0,1-2.3-1l-3.4,2.3c.9,1.4,1.8,2.8,2.6,4.2l2-1.2v-.4l-1,.3-.7-.6-1.2-2,1.4-1a4.7,4.7,0,0,0,3,1.2,7,7,0,0,0,4.7-1.1,5.6,5.6,0,0,0,3-4.1,7.1,7.1,0,0,0-1.2-5.2c-1.3-1.8-2.7-2.9-4.5-3.1a5.8,5.8,0,0,0-4.8,1.4,7.8,7.8,0,0,0-2.8,3.9,5.1,5.1,0,0,0,.1,3.3l-1.4,1.1a14.9,14.9,0,0,0-1.5-2,1.2,1.2,0,0,1-.2-.8,1.4,1.4,0,0,1,.5-.8l-.3-.3-1.8,1.4,1.5,2ZM191,66l.6-.3a2.2,2.2,0,0,1-.3-1c0-.2.2-.4.5-.6l5.1-2.7.6,1.1c-.7,1.6-1.5,3.1-2.3,4.7l-3.8-.4.5.9,2.9.4-.6.9-.3.4h-.2l-.6-.6-.5.2c.6,1.4,1.3,2.8,1.8,4.2l.6-.2a4.4,4.4,0,0,1-.2-1,4.6,4.6,0,0,0,.3-.9l1.4-2.6,3.6.7-.5-1.2-2.5-.5,1.5-2.9h0a3.5,3.5,0,0,0,1.7,1.4,4,4,0,0,0,3.5-.2c1.6-.8,2.5-1.7,2.5-3a8.7,8.7,0,0,0-1.1-4.1l-2.7-4.9-.6.3a3.1,3.1,0,0,1,.5,1.1c0,.3-.2.5-.6.7l-11.1,6.3a.6.6,0,0,1-.7.1,1.4,1.4,0,0,1-.7-.8l-.5.3C189.5,63.2,190.4,64.6,191,66Zm12.4-8.1.8,1.5a4.2,4.2,0,0,1,.6,2.4c-.1.5-.7,1.1-1.7,1.6a5,5,0,0,1-2.6.6,2.2,2.2,0,0,1-1.6-1.3l-.9-1.9Zm-7.1,20.2.5-.2a1.9,1.9,0,0,1-.1-1,1,1,0,0,1,.6-.5l5.5-2,.7,2.1a6.3,6.3,0,0,0,1.9,2.8,3.6,3.6,0,0,0,3.6.4c1.7-.5,2.6-1.3,2.8-2.5a8.3,8.3,0,0,0-.5-4.3c-.6-1.8-1.3-3.5-2-5.2l-.5.2a3,3,0,0,1,.2,1.2c0,.2-.2.4-.7.6l-11.8,4.6a1.1,1.1,0,0,1-.8,0,1.3,1.3,0,0,1-.5-.9l-.6.3C195.2,75.2,195.8,76.6,196.3,78.1Zm13.4-6.2.5,1.5a3.9,3.9,0,0,1,.3,2.5,2.9,2.9,0,0,1-2,1.3,4.2,4.2,0,0,1-2.6.3,2.3,2.3,0,0,1-1.4-1.6l-.6-1.9ZM199.3,88.8h.6a2,2,0,0,1,0-1.1.7.7,0,0,1,.6-.4l6.2-1.5c.2,1,.5,2.1.7,3.1l.5,3.1-6.2,1a1,1,0,0,1-.8-.1,1.9,1.9,0,0,1-.4-1h-.6l.4,2.4a16,16,0,0,1,.3,2.3h.6a2.5,2.5,0,0,1,.1-1,.8.8,0,0,1,.7-.4l12.6-1.8h.1a.7.7,0,0,1,.8.2,5.3,5.3,0,0,1,.3,1.1h.6a23.6,23.6,0,0,0-.4-2.8l-.5-2.7h-.6a5.7,5.7,0,0,1,.1,1.2.9.9,0,0,1-.8.4l-5.1.9-.6-3.1-.6-3.1,5-1.2c.4-.1.7-.1.9.1a4.3,4.3,0,0,1,.4,1.1h.6c-.4-1.8-.8-3.6-1.3-5.4h-.6a1.7,1.7,0,0,1,.1,1.2c0,.3-.3.5-.7.6L200,85a.8.8,0,0,1-.8-.1c-.2-.1-.3-.4-.5-.9l-.5.2C198.6,85.7,198.9,87.2,199.3,88.8Zm2.1,19.9h4v-.6a2.1,2.1,0,0,1-1.2-.4,2,2,0,0,1-.5-1.4c0-1,0-2-.1-3.1l-.2-3,3.4,2.8c1.2,1,2.2,2,3.3,3.1,1-1.1,2-2.1,2.9-3.2l2.8-3.4.2,3.4c.1,1.1.1,2.2.1,3.4s-.1,1.1-.4,1.3a1.2,1.2,0,0,1-1.1.4v.7h2.7a99.4,99.4,0,0,0-.8-13.4h-.6c-2,2.9-4.4,5.6-6.6,8.2a93.4,93.4,0,0,0-8-6.4h-.6A88.8,88.8,0,0,1,201.4,108.7Z"/>
    </g>
  </g>
</svg>
